PathFileType  4	(X/Y/Z) C:\Users\antoi\Documents\MyRepositories\mobilecap\ResultsAnalysis
DataRate	CameraRate	NumFrames	NumMarkers	Units	OrigDataRate	OrigDataStartFrame	OrigNumFrames
100.0	100.0	4	51	mm	100.0	33	256
Frame#	Time	r_knee			r_shank_antsup			r_ankle			r_calc			r_5meta			r_toe			L_knee			L_shank_antsup			L_ankle			L_calc			L_5meta			L_toe			r_sh2			r_sh3			r_sh4			L_sh2			L_sh3			r_thigh1			r_thigh2			r_thigh3			r_thigh4			r_thigh5			L_thigh1			L_thigh2			L_thigh3			L_thigh4			r.ASIS			r.PSIS			L.ASIS			L.PSIS			C7			R_Shoulder			L_Shoulder			R_Sternum			L_Sternum			R_humerus			R_elbow_med			R_elbow_lat			R_forearm			R_wrist_radius			R_wrist_ulna			L_humerus			L_elbow_med			L_elbow_lat			L_forearm			L_wrist_radius			L_wrist_ulna			R_HJC			L_HJC			R_HJC_reg			L_HJC_reg			
		X1	Y1	Z1	X2	Y2	Z2	X3	Y3	Z3	X4	Y4	Z4	X5	Y5	Z5	X6	Y6	Z6	X7	Y7	Z7	X8	Y8	Z8	X9	Y9	Z9	X10	Y10	Z10	X11	Y11	Z11	X12	Y12	Z12	X13	Y13	Z13	X14	Y14	Z14	X15	Y15	Z15	X16	Y16	Z16	X17	Y17	Z17	X18	Y18	Z18	X19	Y19	Z19	X20	Y20	Z20	X21	Y21	Z21	X22	Y22	Z22	X23	Y23	Z23	X24	Y24	Z24	X25	Y25	Z25	X26	Y26	Z26	X27	Y27	Z27	X28	Y28	Z28	X29	Y29	Z29	X30	Y30	Z30	X31	Y31	Z31	X32	Y32	Z32	X33	Y33	Z33	X34	Y34	Z34	X35	Y35	Z35	X36	Y36	Z36	X37	Y37	Z37	X38	Y38	Z38	X39	Y39	Z39	X40	Y40	Z40	X41	Y41	Z41	X42	Y42	Z42	X43	Y43	Z43	X44	Y44	Z44	X45	Y45	Z45	X46	Y46	Z46	X47	Y47	Z47	X48	Y48	Z48	X49	Y49	Z49	X50	Y50	Z50	X51	Y51	Z51	

33	0.32000000	-960.90310	864.54871	-404.91765	-1050.11271	751.26912	-370.66303	-1250.69250	454.61031	-407.07364	-1318.62097	446.58894	-467.56467	-1144.55051	353.36643	-384.39570	-1103.83914	370.28376	-437.55700	-1038.93107	841.32099	-765.57245	-1072.68757	641.97376	-736.91567	-1295.03507	427.29722	-725.56031	-1356.65398	392.69338	-656.72554	-1175.69897	341.56138	-780.12183	-1126.92628	370.85358	-725.87637	-1118.23227	663.27518	-366.30870	-996.00333	716.46958	-411.79584	-1063.01254	625.52901	-417.66802	-1129.41107	683.18790	-792.27188	-1198.37657	588.67559	-769.62229	-1045.18513	1142.99251	-386.97020	-982.78591	1050.86253	-386.77090	-1023.23638	995.05805	-378.04311	-1139.73280	1082.26891	-406.33278	-1073.45589	983.28820	-399.21592	-1172.28673	1103.84155	-781.00830	-1123.46119	975.25346	-788.41995	-1067.01367	1137.61824	-783.10018	-1021.14937	1009.31013	-779.21026	-1063.77925	1352.25685	-468.68645	-1236.24800	1443.33363	-541.92976	-1100.89876	1343.92623	-742.18367	-1245.49841	1445.03719	-635.20930	-963.30914	1854.19587	-634.17151	-894.95546	1789.83354	-470.65573	-931.02060	1803.10371	-805.30773	-867.26397	1717.16760	-612.36521	-871.36930	1717.31878	-664.40751	-987.68819	1575.66534	-339.34287	-1120.81383	1489.69180	-334.52623	-1077.62817	1522.82421	-261.54620	-897.26828	1441.80869	-344.27636	-826.80137	1413.21677	-390.05940	-828.84432	1390.82056	-359.05199	-989.27783	1533.26501	-890.96115	-1102.05906	1459.13304	-869.60552	-1053.30549	1466.94068	-940.92160	-867.48859	1438.60988	-860.52349	-808.58287	1439.80968	-820.12080	-807.45629	1411.07868	-839.80242	-1174.32876	1289.63800	-493.68727	-1202.86292	1289.43732	-689.09108	-1165.01037	1290.04760	-499.37450	-1182.99280	1293.35884	-680.70105	
34	0.33000000	-954.53726	860.77093	-404.84410	-1044.82766	748.96651	-370.87051	-1249.69700	455.53549	-407.90503	-1317.59968	447.80357	-468.44814	-1144.33482	353.56849	-384.59864	-1103.49371	370.10322	-437.64893	-1031.38423	837.74288	-766.16753	-1067.64204	639.13943	-737.12342	-1293.72840	428.51620	-725.71860	-1355.99193	394.47420	-656.73980	-1175.51643	341.47118	-780.07497	-1126.39038	370.49807	-725.94433	-1114.35256	662.17813	-366.82761	-991.00623	713.77853	-411.41562	-1059.48609	623.35376	-418.01261	-1123.63439	681.19017	-792.74516	-1194.18136	587.90967	-769.84192	-1041.38398	1138.34823	-385.95824	-977.84636	1046.70428	-386.11979	-1017.67430	990.71226	-377.61598	-1134.92975	1076.87378	-405.66252	-1067.82052	978.54170	-398.57533	-1167.18545	1098.82838	-781.19484	-1117.02253	970.69084	-788.89589	-1062.22069	1133.58289	-783.28429	-1014.98188	1005.83901	-779.64174	-1061.14241	1346.95652	-468.40571	-1233.54843	1437.50311	-541.51755	-1097.75558	1338.02458	-741.30870	-1242.56161	1439.27874	-634.62762	-959.81727	1847.98040	-633.49406	-891.14054	1783.32684	-470.31446	-927.77013	1796.95904	-804.85186	-863.90273	1710.69319	-612.33852	-867.92380	1710.87792	-664.28397	-981.04763	1568.89758	-338.00672	-1112.82186	1482.03600	-332.27591	-1069.60722	1515.21335	-259.32794	-889.22111	1435.60313	-343.05470	-818.67056	1407.68380	-388.91871	-820.45908	1385.25955	-358.09822	-982.08788	1526.69451	-890.99738	-1093.62300	1450.55359	-870.23901	-1044.93424	1459.51451	-941.56088	-858.69572	1433.58604	-860.79491	-799.99817	1435.47803	-820.28482	-798.34999	1406.94816	-840.13025	-1171.43106	1284.06459	-493.01658	-1199.79479	1283.56316	-688.44460	-1162.11388	1284.23869	-499.27614	-1179.63059	1287.68894	-680.22299	
35	0.34000000	-948.09992	857.10965	-404.89626	-1039.21280	746.71012	-371.12944	-1248.48151	456.44375	-408.65801	-1316.49235	449.26474	-469.15417	-1144.13294	353.72333	-384.78474	-1103.09446	369.90992	-437.77757	-1023.75150	834.17100	-766.81230	-1062.54654	636.44841	-737.33591	-1292.31184	429.95694	-725.84850	-1355.19194	396.50645	-656.67624	-1175.35688	341.44058	-779.92571	-1125.86361	370.14347	-725.82195	-1110.40546	661.11894	-366.99908	-985.80452	711.60046	-410.58238	-1055.75652	621.22709	-418.44242	-1117.79019	679.25270	-793.28915	-1189.87278	587.28759	-770.11148	-1036.65319	1134.07830	-385.63215	-972.67555	1042.95063	-385.53442	-1012.05514	986.57118	-377.20818	-1130.09587	1071.46112	-405.06036	-1062.02793	973.88747	-398.35409	-1161.94680	1093.84908	-781.35707	-1110.40881	966.10757	-789.42605	-1057.31462	1129.68246	-783.39680	-1008.72543	1002.37870	-780.14560	-1058.46281	1341.47193	-467.77098	-1230.76347	1431.67301	-541.07612	-1094.35031	1332.29760	-740.43275	-1239.51080	1433.50481	-634.05314	-956.42165	1841.95941	-632.59637	-887.37059	1777.06097	-469.87760	-924.47595	1790.95087	-804.30845	-860.36191	1704.58333	-611.99404	-864.43095	1704.65818	-663.79234	-974.20387	1562.23264	-336.65940	-1104.80001	1473.83937	-329.57294	-1061.48409	1507.67172	-256.98387	-880.83511	1429.88553	-341.63535	-810.26163	1402.53551	-387.86959	-811.62316	1380.22939	-357.04631	-974.67331	1520.34547	-891.09484	-1084.99745	1442.28382	-870.96660	-1036.39301	1452.34664	-942.13097	-849.84320	1429.04594	-861.13809	-791.25377	1431.74148	-820.54067	-789.12952	1403.35584	-840.48966	-1168.53112	1278.38011	-492.37469	-1196.49266	1277.77680	-687.86050	-1159.19824	1278.45614	-498.90704	-1176.20538	1282.01768	-679.68360	
36	0.35000000	-941.61042	853.52499	-405.14688	-1033.47953	744.36274	-371.45943	-1247.17579	457.37879	-409.25255	-1315.37817	450.98938	-469.57633	-1143.96922	353.89252	-384.89665	-1102.65110	369.68980	-437.97296	-1016.06520	830.65181	-767.51886	-1057.33057	633.81315	-737.59607	-1290.82335	431.48224	-725.93629	-1354.17735	398.89159	-656.68636	-1175.07936	341.56802	-779.85596	-1125.31001	369.76452	-725.63013	-1106.09308	659.58673	-367.22840	-980.54895	709.07710	-410.21252	-1051.79644	619.21000	-418.88831	-1111.89980	677.42961	-793.83474	-1185.50373	586.76320	-770.45673	-1031.52495	1130.00422	-385.48880	-967.35698	1039.50110	-385.12416	-1006.47038	982.61986	-376.97628	-1125.16922	1066.51625	-404.96393	-1056.27072	969.36765	-398.32183	-1156.50830	1088.85709	-781.54226	-1103.65144	961.61518	-790.06456	-1052.34328	1125.81388	-783.43130	-1002.39357	998.96200	-780.79442	-1055.64340	1335.75048	-466.89494	-1227.84484	1425.93816	-540.71140	-1090.70454	1326.69725	-739.71877	-1236.34007	1427.76976	-633.56225	-953.08229	1836.07542	-631.72676	-883.65839	1771.09913	-469.38245	-921.07758	1785.05551	-803.54472	-856.74017	1698.80117	-611.24205	-860.91653	1698.73071	-663.05005	-967.20726	1555.76727	-335.22320	-1096.69286	1465.11278	-326.28864	-1053.12617	1500.34776	-254.53579	-872.10731	1424.55388	-340.15492	-801.66765	1397.77100	-387.19903	-802.42495	1375.69662	-355.94916	-966.99137	1514.42093	-891.21884	-1076.19876	1434.41127	-871.94761	-1027.61988	1445.58410	-942.76986	-840.86395	1425.07377	-861.47125	-782.36723	1428.64242	-820.95455	-779.78036	1400.33211	-840.93788	-1165.61485	1272.61502	-491.85998	-1193.01357	1272.10181	-687.42576	-1156.24367	1272.76196	-498.30974	-1172.78994	1276.32954	-679.16220	
